<svg width="20" height="20" viewBox="0 0 20 20" fill="none" xmlns="http://www.w3.org/2000/svg">
<path d="M19.0964 7.41964C19.0387 7.24983 18.9326 7.10061 18.7911 6.99043C18.6496 6.88024 18.479 6.81389 18.3002 6.79959L13.0711 6.38408L10.8083 1.37506C10.7362 1.21373 10.619 1.07671 10.4708 0.980522C10.3225 0.884337 10.1496 0.833105 9.97296 0.833008C9.79626 0.832911 9.62332 0.883954 9.47499 0.979976C9.32666 1.076 9.2093 1.2129 9.13706 1.37415L6.87424 6.38408L1.64509 6.79959C1.4694 6.8135 1.30144 6.87774 1.1613 6.98462C1.02116 7.0915 0.914781 7.23648 0.854886 7.40224C0.794991 7.56799 0.784117 7.74749 0.823564 7.91926C0.863012 8.09103 0.951111 8.2478 1.07732 8.37081L4.94163 12.1379L3.57495 18.0559C3.53345 18.235 3.54675 18.4225 3.61313 18.594C3.6795 18.7655 3.79588 18.913 3.94717 19.0175C4.09845 19.1221 4.27766 19.1787 4.46153 19.1801C4.64541 19.1815 4.82546 19.1276 4.97832 19.0254L9.97266 15.6958L14.967 19.0254C15.1232 19.1291 15.3075 19.1825 15.495 19.1784C15.6825 19.1743 15.8642 19.1129 16.0158 19.0024C16.1673 18.8919 16.2814 18.7377 16.3426 18.5604C16.4039 18.3832 16.4094 18.1914 16.3584 18.0109L14.6808 12.1406L18.8414 8.39649C19.1138 8.15067 19.2138 7.76727 19.0964 7.41964Z" fill="#B3E3FF"/>
</svg>
